<?xml version="1.0" encoding="UTF-8"?><svg id="logo" xmlns="http://www.w3.org/2000/svg" viewBox="0 0 1000 1000"><defs><style>.cls-1{fill:#fff;}.cls-2{fill:#ed0005;}.cls-3{fill:#151515;}</style></defs><circle class="cls-3" cx="500" cy="500" r="500"/><g><g><path class="cls-1" d="M761.04,620.03c-25.44,12.77-60.87,7.04-71.78-16.46,24.08,10.91,46.87,19.3,71.78,16.46Z"/><path class="cls-1" d="M537.01,876.68c-12.39,.47-24.68,.24-37.02,.29-12.33-.05-24.63,.18-37.01-.29,6.94-4.86,21.85-7.03,37.01-6.73,15.17-.29,30.07,1.87,37.02,6.73Z"/><path class="cls-1" d="M527.94,763.44c-9.96,1.97-19.12,2.61-27.94,2.3-8.81,.3-17.97-.33-27.93-2.3,9.92-3.2,19.09-4.73,27.93-4.54,8.85-.19,18.02,1.34,27.94,4.54Z"/><path class="cls-1" d="M310.74,603.57c-10.91,23.49-46.35,29.23-71.78,16.46,24.91,2.85,47.71-5.55,71.78-16.46Z"/><path class="cls-1" d="M587.79,855.42c-10.57,6.3-22.01,7.78-34.47,3.67,2.24-4.14,5.41-3.2,8-3.64,18.52-3.17,21.84-7.23,17.79-24.86-2.23-9.77-1.81-19.34,.09-29.89-16.78,5.26-29.59,14.92-43.44,22.46-12.03,6.55-23.9,9.89-35.77,9.87-11.86,.02-23.73-3.32-35.76-9.87-13.85-7.55-26.66-17.2-43.44-22.46,1.9,10.55,2.32,20.12,.09,29.89-4.05,17.63-.72,21.69,17.79,24.86,2.59,.44,5.76-.49,7.99,3.64-12.46,4.11-23.89,2.63-34.46-3.67-6.07-3.61-8.87-9.29-7.61-17.18,2.89-18.05,9.68-35.2,11.49-53.53,.68-6.9,20.7-15.25,29.4-12.36,18.22,6.06,36.35,9.03,54.5,8.95,18.16,.08,36.29-2.89,54.51-8.95,8.69-2.89,28.72,5.46,29.4,12.36,1.81,18.33,8.61,35.48,11.49,53.53,1.26,7.89-1.55,13.57-7.61,17.18Z"/><path class="cls-1" d="M641.4,707.52c-12.15,14.93-25.27,24.96-45.73,16.93-2.67-1.05-6.25-2.61-9.56,.4,5.33,12.36,13.58,23.75,14.7,40.67-6.76-8.33-11.03-15.45-16.99-20.65-28.85-25.18-31.7-57.73-27.16-92.45,2.44-18.63,17.53-34.05,37.54-35.53-20.05,11.01-24.74,25.95-23.69,44.17,.44,7.63,2.69,8.65,9.49,7.01,27.81-6.67,47-23.17,57.95-49.39,3.35-8,6.42-16.11,10.16-25.52,3.53,12.96,5.98,24.28,9.7,35.14,10.24,29.79,2.91,55.48-16.42,79.22Z"/><path class="cls-1" d="M416.17,744.87c-5.95,5.2-10.22,12.32-16.98,20.65,1.13-16.92,9.36-28.31,14.7-40.67-3.31-3.01-6.89-1.45-9.56-.4-20.46,8.03-33.59-2-45.73-16.93-19.32-23.74-26.65-49.43-16.43-79.22,3.73-10.86,6.17-22.17,9.71-35.14,3.73,9.41,6.8,17.52,10.16,25.52,10.95,26.22,30.14,42.72,57.95,49.39,6.8,1.64,9.05,.62,9.48-7.01,1.05-18.23-3.63-33.16-23.68-44.17,20.01,1.48,35.11,16.9,37.54,35.53,4.54,34.71,1.69,67.26-27.17,92.45Z"/><path class="cls-1" d="M798.27,585.92c-32.46,11.77-60.81,12.76-87.03-8.9-9.62-7.95-21.61-11.82-36.67-9.66,11.57-18.48,25.32-21.96,42.89-17.82,28.93,6.81,51.73,25.79,80.81,36.38Z"/><path class="cls-1" d="M325.43,567.36c-15.06-2.15-27.04,1.71-36.67,9.66-26.22,21.66-54.58,20.66-87.03,8.9,29.08-10.6,51.88-29.57,80.8-36.38,17.57-4.14,31.32-.65,42.9,17.82Z"/><path class="cls-1" d="M661.24,468.51c-6.35,10.52-12.3,20.88-10.37,33.62,3.28,21.7-5.54,38.46-20.99,52.49-9.62,8.74-19.44,17.28-29.54,25.45-22.62,18.31-42.94,38.55-57.78,63.9-7.92,13.54-10.83,13.45-21.03,.97-6.95-8.54-9.87-18.65-10.99-29.3-1.16-11-1.71-22.06-2.66-33.09-.86-9.91-2.08-19.76-7.43-28.58-.07-.27-.23-.48-.47-.48s-.39,.21-.46,.48c-5.34,8.83-6.57,18.67-7.43,28.58-.95,11.03-1.5,22.09-2.66,33.09-1.12,10.65-4.04,20.76-10.99,29.3-10.2,12.48-13.1,12.57-21.03-.97-14.85-25.35-35.17-45.59-57.78-63.9-10.11-8.17-19.92-16.72-29.54-25.45-15.45-14.03-24.27-30.79-20.99-52.49,1.93-12.73-4.02-23.1-10.37-33.62-9.04-14.97-6.13-19.99,11.29-22.87,25.45-4.21,48.48,3.9,71.34,13.44,5.42,2.25,10.16,6.85,17.87,6.26-6.56-8.26-12.46-15.69-20.88-26.3,17.32,8.14,28.84,18.09,41.25,26.66,22.56,15.57,31.97,22.66,40.38,22.72,8.42-.06,17.83-7.15,40.38-22.72,12.42-8.58,23.93-18.52,41.26-26.66-8.42,10.61-14.32,18.04-20.88,26.3,7.71,.59,12.44-4.01,17.87-6.26,22.86-9.54,45.89-17.64,71.34-13.44,17.42,2.88,20.33,7.9,11.29,22.87Z"/></g><g><g><path class="cls-2" d="M613.93,614.15c-2.96,22.79-13.3,33.36-33.86,33.46,7.51-17.55,17.32-27.08,33.86-33.46Z"/><path class="cls-2" d="M419.93,647.61c-20.56-.1-30.9-10.67-33.86-33.46,16.53,6.37,26.35,15.9,33.86,33.46Z"/></g><g><path class="cls-2" d="M920.91,418.25c-1.69,26.15-12.46,52.1-28.4,73.58-23.87,32.19-59.33,54.39-93.3,52.39,28.12-14.84,56.26-29.65,75.43-56.41-1.21-.66-1.76-1.19-2-1.07-4.32,2.08-8.64,4.2-12.89,6.41-46.73,24.33-95.83,37.22-149,31.49-12.18-1.31-21.15-6.34-25.97-17.61-9.84-23.03,3.34-46.22,28.19-48.54,21.11-1.98,42.4-1.96,63.5-4.01,35.87-3.48,64.99-17.98,79.26-53.46,1.74-4.34,3.09-8.6,4.07-12.77,6.84-29.14-4.21-54.53-24.17-77.76-8.08-9.41-16.57-18.48-25.72-28.65,61,12.43,115.87,61.12,111.01,136.42Z"/><path class="cls-2" d="M315.23,507.03c-4.82,11.27-13.8,16.31-25.97,17.61-53.17,5.73-102.27-7.17-149.01-31.49-4.25-2.21-8.57-4.33-12.88-6.41-.24-.12-.8,.4-2.01,1.07,19.17,26.76,47.32,41.58,75.44,56.41-33.97,2-69.43-20.2-93.29-52.39-15.95-21.49-26.72-47.44-28.41-73.58-4.86-75.3,50-123.99,111.01-136.42-9.15,10.18-17.63,19.24-25.72,28.65-19.96,23.23-31.01,48.62-24.17,77.76,.98,4.18,2.32,8.43,4.07,12.77,14.27,35.49,43.39,49.98,79.26,53.46,21.1,2.04,42.39,2.02,63.5,4.01,24.85,2.32,38.04,25.51,28.19,48.54Z"/></g></g></g><g><path class="cls-1" d="M360.69,250.36l-23.79-36.18,1.76,41.48-6.3,4.12-36.71-17.5,23.2,35.46-13.11,8.58-39.51-60.39,11.56-7.56,47.16,22.74-2.29-52.09,11.48-7.51,39.68,60.28-13.11,8.58Z"/><path class="cls-1" d="M367.23,169.04l15.69-5.71,24.68,67.82-15.69,5.71-24.68-67.82Z"/><path class="cls-1" d="M468.03,180.25l15.09-2.26,4.34,28.96c-3.44,3.5-7.59,6.42-12.45,8.75-4.86,2.33-9.88,3.88-15.04,4.65-7.41,1.11-14.31,.53-20.69-1.74-6.39-2.27-11.68-5.96-15.89-11.07s-6.84-11.19-7.9-18.26c-1.06-7.07-.33-13.66,2.19-19.77s6.54-11.2,12.05-15.26c5.51-4.06,12-6.65,19.48-7.77,6.25-.94,12.09-.73,17.5,.61,5.41,1.34,10.15,3.76,14.22,7.25l-9.14,11.38c-5.9-4.6-12.46-6.37-19.66-5.29-4.55,.68-8.46,2.24-11.7,4.67-3.25,2.43-5.6,5.53-7.05,9.29-1.45,3.76-1.84,7.89-1.17,12.37,.66,4.42,2.24,8.21,4.73,11.38,2.49,3.17,5.63,5.46,9.42,6.87,3.79,1.41,7.93,1.78,12.42,1.11,4.76-.71,8.89-2.38,12.39-4.99l-3.13-20.9Z"/><path class="cls-1" d="M579.57,151.41l-9.16,71.58-16.57-2.12,3.76-29.35-32.52-4.16-3.76,29.35-16.57-2.12,9.16-71.58,16.57,2.12-3.61,28.22,32.52,4.16,3.61-28.22,16.57,2.12Z"/><path class="cls-1" d="M623.25,179.96l-21.43-8.61,5.07-12.63,58.36,23.44-5.07,12.63-21.43-8.61-21.83,54.34-15.5-6.23,21.83-54.34Z"/><path class="cls-1" d="M689.04,252.82l-14.64,20.97-13.7-9.56,14.75-21.13,3.65-54.03,14.54,10.15-2.54,37.33,34.16-15.26,13.44,9.38-49.67,22.16Z"/></g></svg>